<?xml version="1.0" ?><svg id="Layer_1" style="enable-background:new 0 0 120 120;" version="1.1" viewBox="0 0 120 120" xml:space="preserve" xmlns="http://www.w3.org/2000/svg" xmlns:xlink="http://www.w3.org/1999/xlink"><style type="text/css">
	.st0{fill:#2ADD87;}
	.st1{fill:#75ABF9;}
	.st2{fill:#EAEAE8;}
	.st3{fill:#FFFFFF;}
	.st4{fill:#D90049;}
</style><g><path class="st0" d="M92,92c-11.4,11.4-27.4,15.5-42,12.2c0,0,0,0-0.1-0.1c-4-0.8-7.8-2.3-11.4-4.3c-3.7-2.1-7.3-4.6-10.5-7.8   c-7.4-7.4-11.7-16.6-12.9-26.3c-0.5-3.9-0.5-7.7,0-11.6C16.3,44.6,20.6,35.3,28,28c17.6-17.7,46.4-17.7,64,0   c7.4,7.4,11.7,16.6,12.9,26.2c0.5,3.9,0.5,7.7,0,11.6C103.6,75.3,99.4,84.7,92,92z"/><path class="st1" d="M38.4,99.8c-3.7-2.1-7.3-4.6-10.5-7.8C20.5,84.6,16.2,75.4,15,65.7h23.2L38.4,99.8z"/><path class="st2" d="M92,92c-11.4,11.4-27.4,15.5-42,12.2c0,0,0,0-0.1-0.1l-0.1-38.3l55.1-0.1C103.6,75.3,99.4,84.7,92,92z"/><path class="st3" d="M104.9,54.1H15.1c-0.5,3.9-0.5,7.7,0,11.6h23.2l0.1,0l0.1,34.1c3.7,2,7.5,3.4,11.5,4.3l-0.1-38.3l55-0.1   C105.4,62,105.4,58,104.9,54.1z"/><g><path class="st4" d="M58.9,47.2l-7.6-8.5c-4.5-5.2-3.7-13.3,2.1-17.3l0,0c4-2.7,9.3-2.7,13.1,0l0,0c5.7,4,6.7,12,2.1,17.3    l-7.4,8.5C60.7,47.9,59.5,47.9,58.9,47.2z"/><circle class="st3" cx="60" cy="30.9" r="6.3"/></g></g></svg>